<svg xmlns="http://www.w3.org/2000/svg" width="600" height="300" viewBox="0 0 600 300"><rect width="100%" height="100%" fill="#DDDDDD"/><path fill="#999999" d="M122.02 138.88h5.95v24.62h-5.95zm6.77-7.18q0 .77-.32 1.44-.31.67-.82 1.18-.52.5-1.22.8-.69.3-1.48.3-.77 0-1.46-.3-.68-.3-1.18-.8-.51-.51-.81-1.18t-.3-1.44q0-.79.3-1.49.3-.69.81-1.2.5-.5 1.18-.8.69-.3 1.46-.3.79 0 1.48.3.7.3 1.22.8.51.51.82 1.2.32.7.32 1.49m11.16 31.8h-5.93v-24.62h3.62q1.15 0 1.51 1.08l.39 1.82q.65-.72 1.35-1.32.71-.6 1.52-1.03.8-.43 1.72-.69.93-.25 2.03-.25 2.33 0 3.83 1.26t2.24 3.35q.58-1.22 1.44-2.1.87-.88 1.9-1.43t2.2-.81q1.16-.27 2.34-.27 2.04 0 3.62.63 1.58.62 2.66 1.82t1.65 2.93q.56 1.73.56 3.96v15.67h-5.93v-15.67q0-2.35-1.03-3.54t-3.02-1.19q-.91 0-1.69.31t-1.37.9-.93 1.48q-.33.89-.33 2.04v15.67h-5.95v-15.67q0-2.47-1-3.6t-2.92-1.13q-1.29 0-2.41.64-1.11.63-2.07 1.74zm47.28-6.36v-4.15q-2.57.12-4.32.44-1.76.33-2.81.83-1.06.5-1.51 1.18-.46.67-.46 1.46 0 1.56.92 2.23.93.67 2.42.67 1.82 0 3.15-.66t2.61-2M174.7 144.2l-1.06-1.89q4.25-3.89 10.23-3.89 2.16 0 3.86.71t2.88 1.97 1.79 3.01.61 3.84v15.55h-2.69q-.84 0-1.29-.25-.46-.25-.72-1.02l-.53-1.78q-.94.84-1.83 1.48-.88.63-1.84 1.07-.96.43-2.06.66-1.09.22-2.41.22-1.56 0-2.88-.42t-2.28-1.26-1.49-2.08q-.52-1.25-.52-2.91 0-.93.31-1.86.31-.92 1.02-1.76t1.83-1.59q1.13-.74 2.78-1.29 1.64-.55 3.82-.9 2.19-.35 5-.42v-1.44q0-2.47-1.06-3.66t-3.05-1.19q-1.44 0-2.39.34-.94.33-1.66.75t-1.31.76q-.59.33-1.31.33-.62 0-1.06-.32-.43-.32-.69-.76m32.88 6.39q1.1 0 1.92-.3.81-.3 1.35-.83t.82-1.27q.28-.75.28-1.63 0-1.83-1.1-2.9-1.09-1.06-3.27-1.06-2.19 0-3.28 1.06-1.09 1.07-1.09 2.9 0 .86.28 1.6.27.75.81 1.29t1.37.84 1.91.3m6.69 14.01q0-.72-.43-1.17-.43-.46-1.17-.71-.75-.25-1.74-.37-1-.12-2.12-.18-1.11-.06-2.3-.11t-2.32-.19q-.98.55-1.59 1.29-.61.75-.61 1.73 0 .65.32 1.21.32.57 1.03.98.71.4 1.84.63t2.76.23q1.65 0 2.85-.25t1.98-.7q.78-.44 1.14-1.05.36-.62.36-1.34m-1.17-24.88h7.08v2.2q0 1.06-1.27 1.3l-2.21.41q.5 1.27.5 2.78 0 1.83-.73 3.3-.73 1.48-2.03 2.51-1.29 1.03-3.06 1.6-1.76.56-3.8.56-.72 0-1.39-.07-.68-.07-1.32-.19-1.16.69-1.16 1.56 0 .74.69 1.09.68.35 1.81.49t2.57.18 2.95.16 2.95.42 2.57.94q1.13.65 1.81 1.77.69 1.11.69 2.87 0 1.63-.81 3.16-.8 1.54-2.33 2.74-1.52 1.2-3.74 1.93t-5.05.73q-2.79 0-4.85-.54t-3.43-1.44-2.04-2.07q-.67-1.18-.67-2.45 0-1.73 1.04-2.89 1.04-1.17 2.87-1.86-.99-.51-1.56-1.35-.58-.84-.58-2.2 0-.56.21-1.14.2-.59.6-1.17.39-.57.99-1.09t1.42-.92q-1.87-1.01-2.94-2.69t-1.07-3.94q0-1.82.73-3.3.73-1.47 2.04-2.52 1.31-1.04 3.1-1.59 1.79-.56 3.9-.56 1.58 0 2.97.33 1.4.32 2.55.95m15.5 8.64h11.19q0-1.16-.33-2.18-.32-1.02-.97-1.78-.65-.77-1.64-1.22-1-.44-2.32-.44-2.57 0-4.04 1.46-1.48 1.47-1.89 4.16m15.12 3.57h-15.24q.15 1.9.67 3.28.53 1.38 1.4 2.28.86.9 2.05 1.34 1.19.45 2.63.45t2.48-.34 1.82-.74q.78-.41 1.37-.75.59-.33 1.14-.33.75 0 1.11.55l1.7 2.16q-.98 1.15-2.21 1.93-1.22.78-2.55 1.25-1.34.47-2.72.66t-2.67.19q-2.57 0-4.78-.85t-3.84-2.52-2.57-4.13q-.93-2.46-.93-5.7 0-2.52.81-4.74.82-2.22 2.34-3.86 1.53-1.65 3.72-2.61 2.2-.96 4.96-.96 2.33 0 4.3.75 1.96.74 3.38 2.17t2.22 3.5q.8 2.08.8 4.74 0 1.35-.28 1.81-.29.47-1.11.47m11.76 11.57h-5.93v-24.62h3.63q1.15 0 1.51 1.08l.38 1.82q.65-.72 1.36-1.32t1.51-1.03q.81-.43 1.73-.69.92-.25 2.03-.25 2.33 0 3.83 1.26t2.24 3.35q.58-1.22 1.44-2.1t1.9-1.43q1.03-.55 2.19-.81 1.17-.27 2.34-.27 2.04 0 3.63.63 1.58.62 2.66 1.82t1.64 2.93q.57 1.73.57 3.96v15.67h-5.93v-15.67q0-2.35-1.03-3.54t-3.03-1.19q-.91 0-1.69.31t-1.37.9q-.58.59-.92 1.48t-.34 2.04v15.67h-5.95v-15.67q0-2.47-.99-3.6-1-1.13-2.92-1.13-1.3 0-2.41.64-1.12.63-2.08 1.74zm51.87-17.42v11.04q1 1.22 2.19 1.72 1.19.51 2.58.51 1.35 0 2.43-.51 1.08-.5 1.83-1.53.76-1.03 1.17-2.61.4-1.57.4-3.7 0-2.16-.34-3.66-.35-1.5-1-2.44t-1.57-1.37q-.93-.43-2.1-.43-1.85 0-3.15.78-1.29.78-2.44 2.2m-.8-6.12.48 2.28q1.52-1.71 3.44-2.76 1.92-1.06 4.51-1.06 2.01 0 3.68.84t2.88 2.44q1.21 1.59 1.87 3.93t.66 5.37q0 2.76-.74 5.11t-2.12 4.08-3.34 2.7-4.38.97q-2.06 0-3.53-.64-1.46-.63-2.61-1.76v10.08h-5.93v-32.66h3.62q1.15 0 1.51 1.08m27.36.4.36 2.79q1.16-2.21 2.74-3.47t3.74-1.26q1.71 0 2.74.74l-.38 4.44q-.12.44-.35.62t-.61.18q-.36 0-1.07-.12t-1.38-.12q-.99 0-1.75.28-.77.29-1.38.83-.62.54-1.08 1.31-.47.77-.88 1.75v15.17h-5.93v-24.62h3.48q.91 0 1.27.32t.48 1.16m12.87-1.48h5.95v24.62h-5.95zm6.77-7.18q0 .77-.32 1.44-.31.67-.82 1.18-.52.5-1.22.8-.69.3-1.48.3-.77 0-1.46-.3-.68-.3-1.18-.8-.51-.51-.81-1.18t-.3-1.44q0-.79.3-1.49.3-.69.81-1.2.5-.5 1.18-.8.69-.3 1.46-.3.79 0 1.48.3.7.3 1.22.8.51.51.82 1.2.32.7.32 1.49m10.36 8.26.41 1.94q.75-.74 1.57-1.38.83-.64 1.76-1.08.92-.44 1.98-.7 1.05-.25 2.3-.25 2.02 0 3.58.69 1.56.68 2.6 1.92 1.04 1.23 1.58 2.95.54 1.71.54 3.78v15.67h-5.92v-15.67q0-2.26-1.04-3.49-1.03-1.24-3.14-1.24-1.54 0-2.88.7-1.34.69-2.54 1.89v17.81h-5.93v-24.62h3.62q1.15 0 1.51 1.08m41.14 1.96-1.56 2.16q-.26.34-.52.53-.25.19-.73.19-.45 0-.89-.27-.43-.28-1.03-.63-.6-.34-1.43-.62-.82-.28-2.05-.28-1.56 0-2.73.57-1.18.56-1.96 1.62-.78 1.05-1.16 2.55-.39 1.5-.39 3.4 0 1.97.42 3.5.42 1.54 1.21 2.58.8 1.05 1.92 1.59 1.13.54 2.55.54 1.41 0 2.29-.35t1.48-.77 1.04-.77q.44-.34 1-.34.72 0 1.08.55l1.7 2.16q-.98 1.15-2.14 1.93-1.15.78-2.38 1.25-1.24.47-2.55.66t-2.6.19q-2.28 0-4.3-.85-2.01-.85-3.53-2.49-1.51-1.63-2.38-3.99-.88-2.37-.88-5.39 0-2.71.78-5.03.78-2.31 2.29-4.01 1.51-1.69 3.75-2.65 2.23-.96 5.13-.96 2.76 0 4.84.89 2.07.89 3.73 2.54m4.13-3.04h5.95v24.62h-5.95zm6.77-7.18q0 .77-.32 1.44-.31.67-.82 1.18-.52.5-1.22.8-.69.3-1.48.3-.77 0-1.46-.3-.68-.3-1.18-.8-.51-.51-.81-1.18t-.3-1.44q0-.79.3-1.49.3-.69.81-1.2.5-.5 1.18-.8.69-.3 1.46-.3.79 0 1.48.3.7.3 1.22.8.51.51.82 1.2.32.7.32 1.49m11.16 14.38v11.04q1 1.22 2.19 1.72 1.19.51 2.58.51 1.35 0 2.43-.51 1.08-.5 1.83-1.53.76-1.03 1.17-2.61.4-1.57.4-3.7 0-2.16-.34-3.66-.35-1.5-1-2.44t-1.57-1.37q-.93-.43-2.1-.43-1.85 0-3.15.78-1.29.78-2.44 2.2m-.8-6.12.48 2.28q1.52-1.71 3.44-2.76 1.92-1.06 4.51-1.06 2.01 0 3.68.84t2.88 2.44q1.21 1.59 1.87 3.93t.66 5.37q0 2.76-.74 5.11t-2.12 4.08-3.34 2.7-4.38.97q-2.06 0-3.53-.64-1.46-.63-2.61-1.76v10.08h-5.93v-32.66h3.62q1.15 0 1.51 1.08m35.14 17.18v-4.15q-2.57.12-4.32.44-1.75.33-2.81.83-1.05.5-1.51 1.18-.46.67-.46 1.46 0 1.56.93 2.23.92.67 2.41.67 1.82 0 3.16-.66 1.33-.66 2.6-2m-12.53-12.94-1.05-1.89q4.24-3.89 10.22-3.89 2.16 0 3.86.71 1.71.71 2.88 1.97 1.18 1.26 1.79 3.01t.61 3.84v15.55h-2.68q-.84 0-1.3-.25t-.72-1.02l-.53-1.78q-.93.84-1.82 1.48-.89.63-1.85 1.07-.96.43-2.05.66-1.09.22-2.41.22-1.56 0-2.88-.42t-2.28-1.26-1.49-2.08q-.53-1.25-.53-2.91 0-.93.31-1.86.31-.92 1.02-1.76t1.84-1.59q1.13-.74 2.77-1.29t3.83-.9q2.18-.35 4.99-.42v-1.44q0-2.47-1.06-3.66-1.05-1.19-3.04-1.19-1.44 0-2.39.34-.95.33-1.67.75t-1.31.76q-.59.33-1.31.33-.62 0-1.05-.32t-.7-.76m23.95-16.36h5.93v35.66h-5.93z"/></svg>